<?xml version="1.0" encoding="UTF-8" standalone="no"?>
<!DOCTYPE svg PUBLIC "-//W3C//DTD SVG 1.1//EN"
 "http://www.w3.org/Graphics/SVG/1.1/DTD/svg11.dtd">
<!-- Generated by graphviz version 2.44.0 (0)
 -->
<!-- Title: GG Pages: 1 -->
<svg width="218pt" height="116pt"
 viewBox="0.00 0.00 217.97 116.00" xmlns="http://www.w3.org/2000/svg" xmlns:xlink="http://www.w3.org/1999/xlink">
<g id="graph0" class="graph" transform="scale(1 1) rotate(0) translate(4 112)">
<title>GG</title>
<!-- openssl -->
<g id="node1" class="node">
<title>openssl</title>
<ellipse fill="none" stroke="#64748b" cx="110.97" cy="-90" rx="31.58" ry="18"/>
<text text-anchor="middle" x="110.97" y="-87.5" font-family="Times-Roman" font-size="10.00" fill="#64748b">openssl</text>
</g>
<!-- Threads -->
<g id="node2" class="node">
<title>Threads</title>
<ellipse fill="none" stroke="#64748b" cx="32.97" cy="-18" rx="32.93" ry="18"/>
<text text-anchor="middle" x="32.97" y="-15.5" font-family="Times-Roman" font-size="10.00" fill="#64748b">Threads</text>
</g>
<!-- openssl&#45;&gt;Threads -->
<g id="edge1" class="edge">
<title>openssl&#45;&gt;Threads</title>
<path fill="none" stroke="#64748b" d="M94.8,-74.5C83.9,-64.71 69.31,-51.61 57.04,-40.6"/>
<polygon fill="#64748b" stroke="#64748b" points="59.15,-37.8 49.37,-33.73 54.48,-43.01 59.15,-37.8"/>
</g>
<!-- nasm -->
<g id="node3" class="node">
<title>nasm</title>
<ellipse fill="none" stroke="#64748b" cx="110.97" cy="-18" rx="27" ry="18"/>
<text text-anchor="middle" x="110.97" y="-15.5" font-family="Times-Roman" font-size="10.00" fill="#64748b">nasm</text>
</g>
<!-- openssl&#45;&gt;nasm -->
<g id="edge2" class="edge">
<title>openssl&#45;&gt;nasm</title>
<path fill="none" stroke="#64748b" stroke-dasharray="5,2" d="M110.97,-71.7C110.97,-63.98 110.97,-54.71 110.97,-46.11"/>
<polygon fill="#64748b" stroke="#64748b" points="114.47,-46.1 110.97,-36.1 107.47,-46.1 114.47,-46.1"/>
</g>
<!-- yasm -->
<g id="node4" class="node">
<title>yasm</title>
<ellipse fill="none" stroke="#64748b" cx="182.97" cy="-18" rx="27" ry="18"/>
<text text-anchor="middle" x="182.97" y="-15.5" font-family="Times-Roman" font-size="10.00" fill="#64748b">yasm</text>
</g>
<!-- openssl&#45;&gt;yasm -->
<g id="edge3" class="edge">
<title>openssl&#45;&gt;yasm</title>
<path fill="none" stroke="#64748b" stroke-dasharray="5,2" d="M126.23,-74.15C136.3,-64.37 149.64,-51.4 160.85,-40.5"/>
<polygon fill="#64748b" stroke="#64748b" points="163.48,-42.83 168.21,-33.35 158.6,-37.81 163.48,-42.83"/>
</g>
</g>
</svg>
